# xmcd
#
# Track frame offsets: 
#        150
#        10543
#        26643
#        50962
#        65614
#        87489
#        98861
#        124917
#        145168
#        181107
#        207070
#        227816
#        250268
#        266265
#        286955
#        309295
#        321848
#
# Disc length: 4530 seconds
#
# Revision: 1
# Processed by: cddbd v1.5.2PL0 Copyright (c) Steve Scherf et al.
# Submitted via: ExactAudioCopy v1.0b3
#
DISCID=ec11b011
DTITLE=Various Artist - Plénitude vol. 1
DYEAR=2002
DGENRE=New Age
TTITLE0=John Barry - Danse avec les loups
TTITLE1=Alan Stivell - La mémoire de l'humain
TTITLE2=Aurore Boréalis - Rendez-vous avec la lune
TTITLE3=Jean-Michel Jarre - Oxygène (part 2)
TTITLE4=Peter White - Venice Beach
TTITLE5=Davy Spillane - Western whisper
TTITLE6=Bally Sagoo - Waada na tod
TTITLE7=Richard Bona - Dipita
TTITLE8=Violaine Corradi - Yeshoua sum
TTITLE9=Santana - Yours is the light
TTITLE10=Rodrigo Leão and Vox Ensemble - Nulla vita
TTITLE11=Petru Guelfucci - Corsica
TTITLE12=Rondinara - Promenade
TTITLE13=The Vard Sisters - The flower duet
TTITLE14=Mc Katy - Bleu
TTITLE15=Dan Ar Braz - Broken prayer
TTITLE16=Stone Age - Zo laret
EXTD=YEAR: 2002
EXTT0=
EXTT1=
EXTT2=
EXTT3=
EXTT4=
EXTT5=
EXTT6=
EXTT7=
EXTT8=
EXTT9=
EXTT10=
EXTT11=
EXTT12=
EXTT13=
EXTT14=
EXTT15=
EXTT16=
PLAYORDER=
